<svg width="19" height="12" viewBox="0 0 19 12" fill="none" xmlns="http://www.w3.org/2000/svg">
<g clip-path="url(#clip0_205_32)">
<path d="M0 6.21888V5.78371C0.0885677 5.51101 0.219193 5.26345 0.425521 5.05505C1.00096 4.47337 1.54721 3.86027 2.15284 3.31051C3.51401 2.07463 5.03451 1.07326 6.80289 0.466926C7.89638 0.0921981 9.02005 -0.0731657 10.1769 0.0303076C11.5089 0.149253 12.7399 0.584422 13.9036 1.213C15.6013 2.12927 17.0406 3.35451 18.3202 4.76784C18.5972 5.07391 18.8936 5.36885 19 5.7842V6.21936C18.903 6.58104 18.672 6.86051 18.4196 7.12741C18.1638 7.39819 17.9139 7.67476 17.6502 7.93779C16.3741 9.20945 14.9665 10.3109 13.3178 11.0942C12.0784 11.6831 10.7771 12.0192 9.38917 11.9998C7.82414 11.9781 6.39221 11.5086 5.04292 10.7674C3.39823 9.86414 1.99797 8.66839 0.741693 7.30293C0.441849 6.97704 0.115781 6.66662 0 6.21985L0 6.21888ZM9.48763 10.0019C11.7439 10.0131 13.5815 8.22742 13.5914 6.01435C13.6013 3.81288 11.7864 2.02048 9.53068 2.00452C7.25909 1.98856 5.41599 3.77033 5.40857 5.99018C5.40115 8.20035 7.22099 9.99034 9.48763 10.0019Z" fill="black"/>
<path d="M12 6.09735C12.0008 7.47316 10.8776 8.59883 9.50254 8.6001C8.12745 8.60136 7.00127 7.47739 7 6.10284C6.99873 4.72745 8.12196 3.60137 9.49704 3.6001C10.8721 3.59841 11.9987 4.72281 11.9996 6.09777L12 6.09735Z" fill="black"/>
</g>
<defs>
<clipPath id="clip0_205_32">
<rect width="19" height="12" fill="white"/>
</clipPath>
</defs>
</svg>
